<svg xmlns="http://www.w3.org/2000/svg" xmlns:xlink="http://www.w3.org/1999/xlink" version="1.1" x="0px" y="0px" viewBox="0 0 100 100" style="enable-background:new 0 0 100 100;" xml:space="preserve"><g><path d="M32.6,59.2c-0.5,0.3-0.7,0.9-0.4,1.4c0,0.1,4.7,8.8,1.5,17.5c-0.2,0.5,0.1,1.1,0.6,1.3c0.1,0,0.2,0.1,0.4,0.1   c0.4,0,0.8-0.2,0.9-0.6c3.6-9.5-1.4-18.8-1.6-19.2C33.7,59.1,33.1,58.9,32.6,59.2z"></path><path d="M79,56.9c0.2-2.2,0.3-4.6,0.3-6.9c0-21.3-7.9-38-18-38c-2.9,0-5.7,1.4-8.2,4.1c-0.4,0.4-0.4,1,0,1.4c0.4,0.4,1,0.4,1.4,0   c2.1-2.3,4.4-3.4,6.7-3.4c8.7,0,16,16.5,16,36c0,2.3-0.1,4.5-0.3,6.6c-3.1-0.5-6.5-0.9-10.2-1.2C67,53.7,67.1,52,67,50l-0.1-0.8   h1.4c0.6,0,1-0.4,1-1s-0.4-1-1-1H43.5c-0.5,0-0.9-0.4-0.9-0.9V46c0.5,0.5,1.2,0.8,2,0.8h25.1c1.7,0,3-1.3,3-3v-8.4c0-1.7-1.3-3-3-3   h-5.1c-2.5-7.1-7.7-10.3-16.8-10.2c-5.6,0.1-10.1,2.1-13.4,5.9c-4.9,5.8-5.4,14.2-5.1,16.1c0.1,0.5,0.5,0.8,1,0.8   c0.1,0,0.1,0,0.2,0c0.5-0.1,0.9-0.6,0.8-1.1c-0.1-0.9,0-8.9,4.7-14.5c2.9-3.4,6.9-5.2,11.9-5.2c7.9-0.1,12.4,2.4,14.6,8.2H44.6   c-1.2,0-2.2,0.7-2.7,1.7L40.7,36c-0.1,0.2-0.2,0.3-0.2,0.5V39l-11,9.2c-0.2,0.2-0.4,0.5-0.4,0.8v1.7c0,0.4,0.2,0.7,0.6,0.9   c0.1,0.1,0.3,0.1,0.4,0.1c0.2,0,0.5-0.1,0.6-0.2l9.7-8.2v3c0,1.6,1.3,2.9,2.9,2.9H56c0,0.1,0,0.2,0.1,0.3l1.3,2.3   c-0.2,0.2-0.8,0.4-1.9,0.4c-0.6,0-1,0.4-1,1s0.4,1,1,1c1.7,0,2.9-0.4,3.5-1.2c0.6-0.8,0.5-1.5,0.4-1.7c0-0.1-0.1-0.2-0.1-0.3   l-1-1.8h6.6l0.1,0.9c0.1,1.8,0,3.5-0.2,5.1c-4.6-0.3-9.6-0.5-14.7-0.5c-10.7,0-20.8,0.7-28.3,2C9.2,59,9.2,61.8,9.2,62.7   c0,1.9,2.2,3.4,6.9,4.7c0.5,0.1,1.1-0.2,1.2-0.7c0.1-0.5-0.2-1.1-0.7-1.2c-5.4-1.5-5.4-2.7-5.4-2.8c0-2.1,13.3-5.9,38.8-5.9   c5.3,0,10.1,0.2,14.3,0.5c-0.6,2.2-1.7,4.1-3.1,5.8c-3.8,4.3-9.2,5.6-11,5.7c-2.6,0.2-7.9-2.8-9.7-3.9c-0.5-0.3-1.1-0.2-1.4,0.3   c-0.3,0.5-0.2,1.1,0.3,1.4c0.7,0.4,6.8,4.2,10.5,4.2c0,0,0,0,0,0c0,0,0,0,0,0c0.8,0,1.6,0,2.4,0c0,1.7,0.3,4.4,2.1,6.9   c0.2,0.3,0.5,0.4,0.8,0.4c0.2,0,0.4-0.1,0.6-0.2c0.4-0.3,0.5-1,0.2-1.4c-2-2.7-1.8-5.7-1.7-6.6c2.6-0.9,5.7-2.6,8.2-5.4   c1.7-2,2.9-4.3,3.6-6.9c4,0.3,7.5,0.7,10.5,1.2c-0.4,3.2-0.9,6.2-1.6,9c-2.3,0.5-6,1.1-11.4,1.8c-0.5,0.1-0.9,0.6-0.9,1.1   c0.1,0.5,0.5,0.9,1,0.9c0,0,0.1,0,0.1,0c4.8-0.6,8.2-1.1,10.6-1.6C71.6,79.4,66.7,86,61.3,86c-1,0-1.9-0.2-2.9-0.6   c-0.5-0.2-1.1,0-1.3,0.5c-0.2,0.5,0,1.1,0.5,1.3c1.2,0.5,2.4,0.7,3.6,0.7c6.7,0,12.5-7.4,15.6-18.7c1.2-0.3,1.7-0.4,1.8-0.5   c0.5-0.2,0.8-0.7,0.7-1.3c-0.2-0.5-0.7-0.8-1.3-0.7c0,0-0.2,0.1-0.6,0.2c0.6-2.6,1.1-5.3,1.4-8.1c6.6,1.2,10.1,2.7,10.1,3.8   c0,0-0.1,1.5-6.7,3.1c-0.5,0.1-0.9,0.7-0.7,1.2c0.1,0.5,0.5,0.8,1,0.8c0.1,0,0.2,0,0.2,0c5.6-1.4,8.2-3,8.2-5   C90.8,61.8,90.8,59.1,79,56.9z M69.6,34.4c0.6,0,1,0.4,1,1v8.4c0,0.6-0.4,1-1,1h-0.5l-5-7.9c-0.3-0.5-0.9-0.6-1.4-0.3   c-0.5,0.3-0.6,0.9-0.3,1.4l4.3,6.9h-1.3l-5-7.9c-0.3-0.5-0.9-0.6-1.4-0.3c-0.5,0.3-0.6,0.9-0.3,1.4l4.3,6.9H44.6c-0.6,0-1-0.4-1-1   v-8.4c0-0.1,0-0.2,0.1-0.3l0.2-0.4c0.2-0.2,0.4-0.3,0.7-0.3H69.6z"></path><path d="M25.9,67.6c-1.5-0.2-3-0.5-4.4-0.8c-0.5-0.1-1.1,0.3-1.2,0.8c-0.1,0.5,0.3,1.1,0.8,1.2c1.4,0.3,2.9,0.5,4.5,0.8   c0.1,0,0.1,0,0.2,0c0.5,0,0.9-0.4,1-0.8C26.8,68.2,26.4,67.7,25.9,67.6z"></path><path d="M55.3,61.6c1.4,0,2.9-0.3,3.8-1.3c0.4-0.4,0.3-1-0.1-1.4c-0.4-0.4-1-0.3-1.4,0.1c-0.9,1.1-4.4,0.6-5.2,0.1   c-0.2-0.3-0.6-0.5-1-0.4c-0.5,0.1-0.9,0.6-0.8,1.2c0.1,0.6,0.7,1.1,2,1.4C53.3,61.4,54.3,61.6,55.3,61.6z"></path></g></svg>